solid OpenSCAD_Model
  facet normal -0.978148 -0.207911 0
    outer loop
      vertex -4.5 -20 -1.75
      vertex -4.11095 -21.8303 -1.75
      vertex -4.5 -20 1.75
    endloop
  endfacet
  facet normal -0.978148 -0.207911 0
    outer loop
      vertex -4.5 -20 1.75
      vertex -4.11095 -21.8303 -1.75
      vertex -4.11095 -21.8303 1.75
    endloop
  endfacet
  facet normal 0 0 -1
    outer loop
      vertex -4.5 -20 -1.75
      vertex -4.11095 -18.1697 -1.75
      vertex -4.11095 -21.8303 -1.75
    endloop
  endfacet
  facet normal 0 0 -1
    outer loop
      vertex -4.11095 -21.8303 -1.75
      vertex -4.11095 -18.1697 -1.75
      vertex -3.01109 -16.6558 -1.75
    endloop
  endfacet
  facet normal 0 0 -1
    outer loop
      vertex -4.11095 -21.8303 -1.75
      vertex -3.01109 -16.6558 -1.75
      vertex -1.39058 -15.7202 -1.75
    endloop
  endfacet
  facet normal 0 0 -1
    outer loop
      vertex -0.115881 -19.6434 -1.75
      vertex -1.39058 -15.7202 -1.75
      vertex 26.4547 -10.0548 -1.75
    endloop
  endfacet
  facet normal 0 0 -1
    outer loop
      vertex -4.11095 -21.8303 -1.75
      vertex 28.5453 -10.0548 -1.75
      vertex 30.5902 -10.4894 -1.75
    endloop
  endfacet
  facet normal 0 0 -1
    outer loop
      vertex -4.11095 -21.8303 -1.75
      vertex 30.5902 -10.4894 -1.75
      vertex 32.5 -11.3397 -1.75
    endloop
  endfacet
  facet normal 0 0 -1
    outer loop
      vertex -4.11095 -21.8303 -1.75
      vertex 32.5 -11.3397 -1.75
      vertex 34.1913 -12.5686 -1.75
    endloop
  endfacet
  facet normal 0 0 -1
    outer loop
      vertex -4.11095 -21.8303 -1.75
      vertex 34.1913 -12.5686 -1.75
      vertex 35.5902 -14.1221 -1.75
    endloop
  endfacet
  facet normal 0 0 -1
    outer loop
      vertex -4.11095 -21.8303 -1.75
      vertex 35.5902 -14.1221 -1.75
      vertex 36.6355 -15.9326 -1.75
    endloop
  endfacet
  facet normal 0 0 -1
    outer loop
      vertex 28.375 -18.4845 -1.75
      vertex 36.6355 -15.9326 -1.75
      vertex 37.2815 -17.9209 -1.75
    endloop
  endfacet
  facet normal 0 0 -1
    outer loop
      vertex 28.375 -21.5155 -1.75
      vertex 37.5 -20 -1.75
      vertex 37.2815 -22.0791 -1.75
    endloop
  endfacet
  facet normal 0 0 -1
    outer loop
      vertex -4.11095 -21.8303 -1.75
      vertex 37.2815 -22.0791 -1.75
      vertex 36.6355 -24.0674 -1.75
    endloop
  endfacet
  facet normal 0 0 -1
    outer loop
      vertex -4.11095 -21.8303 -1.75
      vertex 36.6355 -24.0674 -1.75
      vertex 35.5902 -25.8779 -1.75
    endloop
  endfacet
  facet normal 0 0 -1
    outer loop
      vertex -4.11095 -21.8303 -1.75
      vertex 35.5902 -25.8779 -1.75
      vertex 34.1913 -27.4314 -1.75
    endloop
  endfacet
  facet normal 0 0 -1
    outer loop
      vertex -4.11095 -21.8303 -1.75
      vertex 34.1913 -27.4314 -1.75
      vertex 32.5 -28.6603 -1.75
    endloop
  endfacet
  facet normal 0 0 -1
    outer loop
      vertex -4.11095 -21.8303 -1.75
      vertex 32.5 -28.6603 -1.75
      vertex 30.5902 -29.5106 -1.75
    endloop
  endfacet
  facet normal 0 0 -1
    outer loop
      vertex -4.11095 -21.8303 -1.75
      vertex 30.5902 -29.5106 -1.75
      vertex 28.5453 -29.9452 -1.75
    endloop
  endfacet
  facet normal 0 0 -1
    outer loop
      vertex -4.11095 -21.8303 -1.75
      vertex 28.5453 -29.9452 -1.75
      vertex 26.4547 -29.9452 -1.75
    endloop
  endfacet
  facet normal 0 0 -1
    outer loop
      vertex -4.11095 -21.8303 -1.75
      vertex 26.4547 -29.9452 -1.75
      vertex -1.39058 -24.2798 -1.75
    endloop
  endfacet
  facet normal 0 0 -1
    outer loop
      vertex -4.11095 -21.8303 -1.75
      vertex -1.39058 -24.2798 -1.75
      vertex -3.01109 -23.3442 -1.75
    endloop
  endfacet
  facet normal 0 0 -1
    outer loop
      vertex -4.11095 -21.8303 -1.75
      vertex -1.39058 -15.7202 -1.75
      vertex -0.375 -20 -1.75
    endloop
  endfacet
  facet normal 0 0 -1
    outer loop
      vertex 0.303381 -19.7796 -1.75
      vertex 26.4547 -10.0548 -1.75
      vertex 28.5453 -10.0548 -1.75
    endloop
  endfacet
  facet normal 0 0 -1
    outer loop
      vertex -4.11095 -21.8303 -1.75
      vertex -0.115881 -20.3566 -1.75
      vertex 0.303381 -20.2204 -1.75
    endloop
  endfacet
  facet normal 0 0 -1
    outer loop
      vertex -4.11095 -21.8303 -1.75
      vertex 0.303381 -20.2204 -1.75
      vertex 28.5453 -10.0548 -1.75
    endloop
  endfacet
  facet normal 0 0 -1
    outer loop
      vertex 0.303381 -19.7796 -1.75
      vertex 28.5453 -10.0548 -1.75
      vertex 0.303381 -20.2204 -1.75
    endloop
  endfacet
  facet normal 0 0 -1
    outer loop
      vertex -0.375 -20 -1.75
      vertex -1.39058 -15.7202 -1.75
      vertex -0.115881 -19.6434 -1.75
    endloop
  endfacet
  facet normal 0 0 -1
    outer loop
      vertex 25.75 -20 -1.75
      vertex -4.11095 -21.8303 -1.75
      vertex 26.625 -18.4845 -1.75
    endloop
  endfacet
  facet normal 0 0 -1
    outer loop
      vertex 26.625 -21.5155 -1.75
      vertex -4.11095 -21.8303 -1.75
      vertex 25.75 -20 -1.75
    endloop
  endfacet
  facet normal 0 0 -1
    outer loop
      vertex 29.25 -20 -1.75
      vertex 37.2815 -17.9209 -1.75
      vertex 37.5 -20 -1.75
    endloop
  endfacet
  facet normal 0 0 -1
    outer loop
      vertex 29.25 -20 -1.75
      vertex 37.5 -20 -1.75
      vertex 28.375 -21.5155 -1.75
    endloop
  endfacet
  facet normal 0 0 -1
    outer loop
      vertex -4.11095 -21.8303 -1.75
      vertex 26.625 -21.5155 -1.75
      vertex 37.2815 -22.0791 -1.75
    endloop
  endfacet
  facet normal 0 0 -1
    outer loop
      vertex 26.625 -21.5155 -1.75
      vertex 28.375 -21.5155 -1.75
      vertex 37.2815 -22.0791 -1.75
    endloop
  endfacet
  facet normal 0 0 -1
    outer loop
      vertex 26.625 -18.4845 -1.75
      vertex 36.6355 -15.9326 -1.75
      vertex 28.375 -18.4845 -1.75
    endloop
  endfacet
  facet normal 0 0 -1
    outer loop
      vertex 28.375 -18.4845 -1.75
      vertex 37.2815 -17.9209 -1.75
      vertex 29.25 -20 -1.75
    endloop
  endfacet
  facet normal 0 0 -1
    outer loop
      vertex -4.11095 -21.8303 -1.75
      vertex 36.6355 -15.9326 -1.75
      vertex 26.625 -18.4845 -1.75
    endloop
  endfacet
  facet normal 0 0 -1
    outer loop
      vertex -0.115881 -20.3566 -1.75
      vertex -4.11095 -21.8303 -1.75
      vertex -0.375 -20 -1.75
    endloop
  endfacet
  facet normal 0 0 -1
    outer loop
      vertex -0.115881 -19.6434 -1.75
      vertex 26.4547 -10.0548 -1.75
      vertex 0.303381 -19.7796 -1.75
    endloop
  endfacet
  facet normal -0.978148 0.207911 0
    outer loop
      vertex -4.5 -20 -1.75
      vertex -4.5 -20 1.75
      vertex -4.11095 -18.1697 -1.75
    endloop
  endfacet
  facet normal -0.978148 0.207911 0
    outer loop
      vertex -4.11095 -18.1697 -1.75
      vertex -4.5 -20 1.75
      vertex -4.11095 -18.1697 1.75
    endloop
  endfacet
  facet normal 0 0 1
    outer loop
      vertex -4.11095 -18.1697 1.75
      vertex -4.5 -20 1.75
      vertex -4.11095 -21.8303 1.75
    endloop
  endfacet
  facet normal 0 0 1
    outer loop
      vertex -1.39058 -24.2798 1.75
      vertex -4.11095 -18.1697 1.75
      vertex -3.01109 -23.3442 1.75
    endloop
  endfacet
  facet normal 0 0 1
    outer loop
      vertex -3.01109 -23.3442 1.75
      vertex -4.11095 -18.1697 1.75
      vertex -4.11095 -21.8303 1.75
    endloop
  endfacet
  facet normal 0 0 1
    outer loop
      vertex -0.115881 -20.3566 1.75
      vertex -4.11095 -18.1697 1.75
      vertex -1.39058 -24.2798 1.75
    endloop
  endfacet
  facet normal 0 0 1
    outer loop
      vertex 30.5902 -29.5106 1.75
      vertex -4.11095 -18.1697 1.75
      vertex 28.5453 -29.9452 1.75
    endloop
  endfacet
  facet normal 0 0 1
    outer loop
      vertex 32.5 -28.6603 1.75
      vertex -4.11095 -18.1697 1.75
      vertex 30.5902 -29.5106 1.75
    endloop
  endfacet
  facet normal 0 0 1
    outer loop
      vertex 34.1913 -27.4314 1.75
      vertex -4.11095 -18.1697 1.75
      vertex 32.5 -28.6603 1.75
    endloop
  endfacet
  facet normal 0 0 1
    outer loop
      vertex 35.5902 -25.8779 1.75
      vertex -4.11095 -18.1697 1.75
      vertex 34.1913 -27.4314 1.75
    endloop
  endfacet
  facet normal 0 0 1
    outer loop
      vertex 36.6355 -24.0674 1.75
      vertex -4.11095 -18.1697 1.75
      vertex 35.5902 -25.8779 1.75
    endloop
  endfacet
  facet normal 0 0 1
    outer loop
      vertex 26.625 -21.5155 1.75
      vertex -4.11095 -18.1697 1.75
      vertex 36.6355 -24.0674 1.75
    endloop
  endfacet
  facet normal 0 0 1
    outer loop
      vertex 36.6355 -15.9326 1.75
      vertex -4.11095 -18.1697 1.75
      vertex 37.2815 -17.9209 1.75
    endloop
  endfacet
  facet normal 0 0 1
    outer loop
      vertex 35.5902 -14.1221 1.75
      vertex -4.11095 -18.1697 1.75
      vertex 36.6355 -15.9326 1.75
    endloop
  endfacet
  facet normal 0 0 1
    outer loop
      vertex 34.1913 -12.5686 1.75
      vertex -4.11095 -18.1697 1.75
      vertex 35.5902 -14.1221 1.75
    endloop
  endfacet
  facet normal 0 0 1
    outer loop
      vertex 32.5 -11.3397 1.75
      vertex -4.11095 -18.1697 1.75
      vertex 34.1913 -12.5686 1.75
    endloop
  endfacet
  facet normal 0 0 1
    outer loop
      vertex 30.5902 -10.4894 1.75
      vertex -4.11095 -18.1697 1.75
      vertex 32.5 -11.3397 1.75
    endloop
  endfacet
  facet normal 0 0 1
    outer loop
      vertex 28.5453 -10.0548 1.75
      vertex -4.11095 -18.1697 1.75
      vertex 30.5902 -10.4894 1.75
    endloop
  endfacet
  facet normal 0 0 1
    outer loop
      vertex 26.4547 -10.0548 1.75
      vertex -4.11095 -18.1697 1.75
      vertex 28.5453 -10.0548 1.75
    endloop
  endfacet
  facet normal 0 0 1
    outer loop
      vertex -1.39058 -15.7202 1.75
      vertex -4.11095 -18.1697 1.75
      vertex 26.4547 -10.0548 1.75
    endloop
  endfacet
  facet normal 0 0 1
    outer loop
      vertex -3.01109 -16.6558 1.75
      vertex -4.11095 -18.1697 1.75
      vertex -1.39058 -15.7202 1.75
    endloop
  endfacet
  facet normal 0 0 1
    outer loop
      vertex 26.4547 -29.9452 1.75
      vertex -0.115881 -20.3566 1.75
      vertex -1.39058 -24.2798 1.75
    endloop
  endfacet
  facet normal 0 0 1
    outer loop
      vertex -0.375 -20 1.75
      vertex -4.11095 -18.1697 1.75
      vertex -0.115881 -20.3566 1.75
    endloop
  endfacet
  facet normal 0 0 1
    outer loop
      vertex 0.303381 -19.7796 1.75
      vertex 0.303381 -20.2204 1.75
      vertex 26.4547 -29.9452 1.75
    endloop
  endfacet
  facet normal 0 0 1
    outer loop
      vertex 0.303381 -19.7796 1.75
      vertex -4.11095 -18.1697 1.75
      vertex -0.115881 -19.6434 1.75
    endloop
  endfacet
  facet normal 0 0 1
    outer loop
      vertex 26.625 -21.5155 1.75
      vertex 25.75 -20 1.75
      vertex -4.11095 -18.1697 1.75
    endloop
  endfacet
  facet normal 0 0 1
    outer loop
      vertex 28.5453 -29.9452 1.75
      vertex -4.11095 -18.1697 1.75
      vertex 0.303381 -19.7796 1.75
    endloop
  endfacet
  facet normal 0 0 1
    outer loop
      vertex 0.303381 -19.7796 1.75
      vertex 26.4547 -29.9452 1.75
      vertex 28.5453 -29.9452 1.75
    endloop
  endfacet
  facet normal 0 0 1
    outer loop
      vertex 37.2815 -22.0791 1.75
      vertex 26.625 -21.5155 1.75
      vertex 36.6355 -24.0674 1.75
    endloop
  endfacet
  facet normal 0 0 1
    outer loop
      vertex 25.75 -20 1.75
      vertex 26.625 -18.4845 1.75
      vertex -4.11095 -18.1697 1.75
    endloop
  endfacet
  facet normal 0 0 1
    outer loop
      vertex 37.5 -20 1.75
      vertex 29.25 -20 1.75
      vertex 37.2815 -22.0791 1.75
    endloop
  endfacet
  facet normal 0 0 1
    outer loop
      vertex 29.25 -20 1.75
      vertex 28.375 -21.5155 1.75
      vertex 37.2815 -22.0791 1.75
    endloop
  endfacet
  facet normal 0 0 1
    outer loop
      vertex 37.2815 -17.9209 1.75
      vertex -4.11095 -18.1697 1.75
      vertex 26.625 -18.4845 1.75
    endloop
  endfacet
  facet normal 0 0 1
    outer loop
      vertex 37.2815 -17.9209 1.75
      vertex 28.375 -18.4845 1.75
      vertex 37.5 -20 1.75
    endloop
  endfacet
  facet normal 0 0 1
    outer loop
      vertex 37.2815 -17.9209 1.75
      vertex 26.625 -18.4845 1.75
      vertex 28.375 -18.4845 1.75
    endloop
  endfacet
  facet normal 0 0 1
    outer loop
      vertex 28.375 -18.4845 1.75
      vertex 29.25 -20 1.75
      vertex 37.5 -20 1.75
    endloop
  endfacet
  facet normal 0 0 1
    outer loop
      vertex 37.2815 -22.0791 1.75
      vertex 28.375 -21.5155 1.75
      vertex 26.625 -21.5155 1.75
    endloop
  endfacet
  facet normal 0 0 1
    outer loop
      vertex 0.303381 -20.2204 1.75
      vertex -0.115881 -20.3566 1.75
      vertex 26.4547 -29.9452 1.75
    endloop
  endfacet
  facet normal 0 0 1
    outer loop
      vertex -0.375 -20 1.75
      vertex -0.115881 -19.6434 1.75
      vertex -4.11095 -18.1697 1.75
    endloop
  endfacet
  facet normal -0.809017 -0.587785 0
    outer loop
      vertex -4.11095 -21.8303 -1.75
      vertex -3.01109 -23.3442 -1.75
      vertex -4.11095 -21.8303 1.75
    endloop
  endfacet
  facet normal -0.809017 -0.587785 0
    outer loop
      vertex -4.11095 -21.8303 1.75
      vertex -3.01109 -23.3442 -1.75
      vertex -3.01109 -23.3442 1.75
    endloop
  endfacet
  facet normal -0.5 -0.866026 0
    outer loop
      vertex -3.01109 -23.3442 1.75
      vertex -3.01109 -23.3442 -1.75
      vertex -1.39058 -24.2798 -1.75
    endloop
  endfacet
  facet normal -0.5 -0.866026 0
    outer loop
      vertex -1.39058 -24.2798 1.75
      vertex -3.01109 -23.3442 1.75
      vertex -1.39058 -24.2798 -1.75
    endloop
  endfacet
  facet normal -0.199377 -0.979923 0
    outer loop
      vertex -1.39058 -24.2798 1.75
      vertex -1.39058 -24.2798 -1.75
      vertex 26.4547 -29.9452 -1.75
    endloop
  endfacet
  facet normal -0.199377 -0.979923 0
    outer loop
      vertex 26.4547 -29.9452 1.75
      vertex -1.39058 -24.2798 1.75
      vertex 26.4547 -29.9452 -1.75
    endloop
  endfacet
  facet normal -1.22465e-16 -1 0
    outer loop
      vertex 26.4547 -29.9452 1.75
      vertex 26.4547 -29.9452 -1.75
      vertex 28.5453 -29.9452 -1.75
    endloop
  endfacet
  facet normal -1.22465e-16 -1 0
    outer loop
      vertex 28.5453 -29.9452 1.75
      vertex 26.4547 -29.9452 1.75
      vertex 28.5453 -29.9452 -1.75
    endloop
  endfacet
  facet normal 0.207912 -0.978148 0
    outer loop
      vertex 28.5453 -29.9452 1.75
      vertex 28.5453 -29.9452 -1.75
      vertex 30.5902 -29.5106 -1.75
    endloop
  endfacet
  facet normal 0.207912 -0.978148 0
    outer loop
      vertex 30.5902 -29.5106 1.75
      vertex 28.5453 -29.9452 1.75
      vertex 30.5902 -29.5106 -1.75
    endloop
  endfacet
  facet normal 0.406737 -0.913545 0
    outer loop
      vertex 30.5902 -29.5106 1.75
      vertex 30.5902 -29.5106 -1.75
      vertex 32.5 -28.6603 -1.75
    endloop
  endfacet
  facet normal 0.406737 -0.913545 0
    outer loop
      vertex 32.5 -28.6603 1.75
      vertex 30.5902 -29.5106 1.75
      vertex 32.5 -28.6603 -1.75
    endloop
  endfacet
  facet normal 0.587785 -0.809017 0
    outer loop
      vertex 32.5 -28.6603 1.75
      vertex 32.5 -28.6603 -1.75
      vertex 34.1913 -27.4314 -1.75
    endloop
  endfacet
  facet normal 0.587785 -0.809017 0
    outer loop
      vertex 34.1913 -27.4314 1.75
      vertex 32.5 -28.6603 1.75
      vertex 34.1913 -27.4314 -1.75
    endloop
  endfacet
  facet normal 0.743145 -0.669131 0
    outer loop
      vertex 34.1913 -27.4314 1.75
      vertex 34.1913 -27.4314 -1.75
      vertex 35.5902 -25.8779 -1.75
    endloop
  endfacet
  facet normal 0.743145 -0.669131 0
    outer loop
      vertex 35.5902 -25.8779 1.75
      vertex 34.1913 -27.4314 1.75
      vertex 35.5902 -25.8779 -1.75
    endloop
  endfacet
  facet normal 0.866025 -0.5 0
    outer loop
      vertex 35.5902 -25.8779 1.75
      vertex 35.5902 -25.8779 -1.75
      vertex 36.6355 -24.0674 -1.75
    endloop
  endfacet
  facet normal 0.866025 -0.5 0
    outer loop
      vertex 36.6355 -24.0674 1.75
      vertex 35.5902 -25.8779 1.75
      vertex 36.6355 -24.0674 -1.75
    endloop
  endfacet
  facet normal 0.951057 -0.309017 0
    outer loop
      vertex 36.6355 -24.0674 1.75
      vertex 36.6355 -24.0674 -1.75
      vertex 37.2815 -22.0791 -1.75
    endloop
  endfacet
  facet normal 0.951057 -0.309017 0
    outer loop
      vertex 37.2815 -22.0791 1.75
      vertex 36.6355 -24.0674 1.75
      vertex 37.2815 -22.0791 -1.75
    endloop
  endfacet
  facet normal 0.994522 -0.104528 0
    outer loop
      vertex 37.2815 -22.0791 1.75
      vertex 37.2815 -22.0791 -1.75
      vertex 37.5 -20 -1.75
    endloop
  endfacet
  facet normal 0.994522 -0.104528 0
    outer loop
      vertex 37.5 -20 1.75
      vertex 37.2815 -22.0791 1.75
      vertex 37.5 -20 -1.75
    endloop
  endfacet
  facet normal 0.994522 0.104528 0
    outer loop
      vertex 37.5 -20 -1.75
      vertex 37.2815 -17.9209 -1.75
      vertex 37.2815 -17.9209 1.75
    endloop
  endfacet
  facet normal 0.994522 0.104528 0
    outer loop
      vertex 37.5 -20 1.75
      vertex 37.5 -20 -1.75
      vertex 37.2815 -17.9209 1.75
    endloop
  endfacet
  facet normal 0.951057 0.309017 0
    outer loop
      vertex 37.2815 -17.9209 -1.75
      vertex 36.6355 -15.9326 -1.75
      vertex 36.6355 -15.9326 1.75
    endloop
  endfacet
  facet normal 0.951057 0.309017 0
    outer loop
      vertex 37.2815 -17.9209 1.75
      vertex 37.2815 -17.9209 -1.75
      vertex 36.6355 -15.9326 1.75
    endloop
  endfacet
  facet normal 0.866025 0.5 0
    outer loop
      vertex 36.6355 -15.9326 -1.75
      vertex 35.5902 -14.1221 -1.75
      vertex 35.5902 -14.1221 1.75
    endloop
  endfacet
  facet normal 0.866025 0.5 0
    outer loop
      vertex 36.6355 -15.9326 1.75
      vertex 36.6355 -15.9326 -1.75
      vertex 35.5902 -14.1221 1.75
    endloop
  endfacet
  facet normal 0.743145 0.669131 0
    outer loop
      vertex 35.5902 -14.1221 -1.75
      vertex 34.1913 -12.5686 -1.75
      vertex 34.1913 -12.5686 1.75
    endloop
  endfacet
  facet normal 0.743145 0.669131 0
    outer loop
      vertex 35.5902 -14.1221 1.75
      vertex 35.5902 -14.1221 -1.75
      vertex 34.1913 -12.5686 1.75
    endloop
  endfacet
  facet normal 0.587785 0.809017 0
    outer loop
      vertex 32.5 -11.3397 -1.75
      vertex 32.5 -11.3397 1.75
      vertex 34.1913 -12.5686 -1.75
    endloop
  endfacet
  facet normal 0.587785 0.809017 0
    outer loop
      vertex 34.1913 -12.5686 -1.75
      vertex 32.5 -11.3397 1.75
      vertex 34.1913 -12.5686 1.75
    endloop
  endfacet
  facet normal 0.406737 0.913545 0
    outer loop
      vertex 30.5902 -10.4894 -1.75
      vertex 30.5902 -10.4894 1.75
      vertex 32.5 -11.3397 -1.75
    endloop
  endfacet
  facet normal 0.406737 0.913545 0
    outer loop
      vertex 32.5 -11.3397 -1.75
      vertex 30.5902 -10.4894 1.75
      vertex 32.5 -11.3397 1.75
    endloop
  endfacet
  facet normal 0.207912 0.978148 0
    outer loop
      vertex 28.5453 -10.0548 -1.75
      vertex 28.5453 -10.0548 1.75
      vertex 30.5902 -10.4894 -1.75
    endloop
  endfacet
  facet normal 0.207912 0.978148 0
    outer loop
      vertex 30.5902 -10.4894 -1.75
      vertex 28.5453 -10.0548 1.75
      vertex 30.5902 -10.4894 1.75
    endloop
  endfacet
  facet normal 1.22465e-16 1 0
    outer loop
      vertex 26.4547 -10.0548 -1.75
      vertex 26.4547 -10.0548 1.75
      vertex 28.5453 -10.0548 -1.75
    endloop
  endfacet
  facet normal 1.22465e-16 1 0
    outer loop
      vertex 28.5453 -10.0548 -1.75
      vertex 26.4547 -10.0548 1.75
      vertex 28.5453 -10.0548 1.75
    endloop
  endfacet
  facet normal -0.199377 0.979923 0
    outer loop
      vertex -1.39058 -15.7202 -1.75
      vertex -1.39058 -15.7202 1.75
      vertex 26.4547 -10.0548 -1.75
    endloop
  endfacet
  facet normal -0.199377 0.979923 0
    outer loop
      vertex 26.4547 -10.0548 -1.75
      vertex -1.39058 -15.7202 1.75
      vertex 26.4547 -10.0548 1.75
    endloop
  endfacet
  facet normal -0.5 0.866026 0
    outer loop
      vertex -3.01109 -16.6558 -1.75
      vertex -3.01109 -16.6558 1.75
      vertex -1.39058 -15.7202 -1.75
    endloop
  endfacet
  facet normal -0.5 0.866026 0
    outer loop
      vertex -1.39058 -15.7202 -1.75
      vertex -3.01109 -16.6558 1.75
      vertex -1.39058 -15.7202 1.75
    endloop
  endfacet
  facet normal -0.809017 0.587785 0
    outer loop
      vertex -4.11095 -18.1697 -1.75
      vertex -4.11095 -18.1697 1.75
      vertex -3.01109 -16.6558 -1.75
    endloop
  endfacet
  facet normal -0.809017 0.587785 0
    outer loop
      vertex -3.01109 -16.6558 -1.75
      vertex -4.11095 -18.1697 1.75
      vertex -3.01109 -16.6558 1.75
    endloop
  endfacet
  facet normal 0.809016 0.587786 0
    outer loop
      vertex -0.375 -20 1.75
      vertex -0.115881 -20.3566 1.75
      vertex -0.115881 -20.3566 -1.75
    endloop
  endfacet
  facet normal 0.809016 0.587786 0
    outer loop
      vertex -0.375 -20 -1.75
      vertex -0.375 -20 1.75
      vertex -0.115881 -20.3566 -1.75
    endloop
  endfacet
  facet normal 0.809016 -0.587786 0
    outer loop
      vertex -0.115881 -19.6434 -1.75
      vertex -0.115881 -19.6434 1.75
      vertex -0.375 -20 1.75
    endloop
  endfacet
  facet normal 0.809016 -0.587786 0
    outer loop
      vertex -0.375 -20 -1.75
      vertex -0.115881 -19.6434 -1.75
      vertex -0.375 -20 1.75
    endloop
  endfacet
  facet normal -0.309018 -0.951056 0
    outer loop
      vertex 0.303381 -19.7796 -1.75
      vertex 0.303381 -19.7796 1.75
      vertex -0.115881 -19.6434 1.75
    endloop
  endfacet
  facet normal -0.309018 -0.951056 0
    outer loop
      vertex -0.115881 -19.6434 -1.75
      vertex 0.303381 -19.7796 -1.75
      vertex -0.115881 -19.6434 1.75
    endloop
  endfacet
  facet normal -1 1.22465e-16 0
    outer loop
      vertex 0.303381 -19.7796 1.75
      vertex 0.303381 -19.7796 -1.75
      vertex 0.303381 -20.2204 1.75
    endloop
  endfacet
  facet normal -1 1.22465e-16 0
    outer loop
      vertex 0.303381 -20.2204 1.75
      vertex 0.303381 -19.7796 -1.75
      vertex 0.303381 -20.2204 -1.75
    endloop
  endfacet
  facet normal -0.309018 0.951056 0
    outer loop
      vertex 0.303381 -20.2204 1.75
      vertex 0.303381 -20.2204 -1.75
      vertex -0.115881 -20.3566 1.75
    endloop
  endfacet
  facet normal -0.309018 0.951056 0
    outer loop
      vertex -0.115881 -20.3566 1.75
      vertex 0.303381 -20.2204 -1.75
      vertex -0.115881 -20.3566 -1.75
    endloop
  endfacet
  facet normal 0.866025 -0.5 0
    outer loop
      vertex 26.625 -18.4845 -1.75
      vertex 26.625 -18.4845 1.75
      vertex 25.75 -20 1.75
    endloop
  endfacet
  facet normal 0.866025 -0.5 0
    outer loop
      vertex 25.75 -20 -1.75
      vertex 26.625 -18.4845 -1.75
      vertex 25.75 -20 1.75
    endloop
  endfacet
  facet normal 0.866025 0.5 0
    outer loop
      vertex 25.75 -20 1.75
      vertex 26.625 -21.5155 1.75
      vertex 26.625 -21.5155 -1.75
    endloop
  endfacet
  facet normal 0.866025 0.5 0
    outer loop
      vertex 25.75 -20 -1.75
      vertex 25.75 -20 1.75
      vertex 26.625 -21.5155 -1.75
    endloop
  endfacet
  facet normal -1.22465e-16 -1 0
    outer loop
      vertex 28.375 -18.4845 -1.75
      vertex 28.375 -18.4845 1.75
      vertex 26.625 -18.4845 1.75
    endloop
  endfacet
  facet normal -1.22465e-16 -1 0
    outer loop
      vertex 26.625 -18.4845 -1.75
      vertex 28.375 -18.4845 -1.75
      vertex 26.625 -18.4845 1.75
    endloop
  endfacet
  facet normal -0.866025 -0.5 0
    outer loop
      vertex 29.25 -20 1.75
      vertex 28.375 -18.4845 1.75
      vertex 29.25 -20 -1.75
    endloop
  endfacet
  facet normal -0.866025 -0.5 0
    outer loop
      vertex 29.25 -20 -1.75
      vertex 28.375 -18.4845 1.75
      vertex 28.375 -18.4845 -1.75
    endloop
  endfacet
  facet normal -0.866025 0.5 0
    outer loop
      vertex 29.25 -20 1.75
      vertex 29.25 -20 -1.75
      vertex 28.375 -21.5155 1.75
    endloop
  endfacet
  facet normal -0.866025 0.5 0
    outer loop
      vertex 28.375 -21.5155 1.75
      vertex 29.25 -20 -1.75
      vertex 28.375 -21.5155 -1.75
    endloop
  endfacet
  facet normal 1.22465e-16 1 0
    outer loop
      vertex 28.375 -21.5155 1.75
      vertex 28.375 -21.5155 -1.75
      vertex 26.625 -21.5155 1.75
    endloop
  endfacet
  facet normal 1.22465e-16 1 0
    outer loop
      vertex 26.625 -21.5155 1.75
      vertex 28.375 -21.5155 -1.75
      vertex 26.625 -21.5155 -1.75
    endloop
  endfacet
  facet normal -0.994522 -0.104528 0
    outer loop
      vertex -10 0 -1.75
      vertex -9.78148 -2.07912 -1.75
      vertex -10 0 1.75
    endloop
  endfacet
  facet normal -0.994522 -0.104528 0
    outer loop
      vertex -10 0 1.75
      vertex -9.78148 -2.07912 -1.75
      vertex -9.78148 -2.07912 1.75
    endloop
  endfacet
  facet normal 0 0 -1
    outer loop
      vertex -10 0 -1.75
      vertex -9.78148 2.07912 -1.75
      vertex -9.78148 -2.07912 -1.75
    endloop
  endfacet
  facet normal 0 0 -1
    outer loop
      vertex -9.78148 -2.07912 -1.75
      vertex -9.78148 2.07912 -1.75
      vertex -9.13546 4.06737 -1.75
    endloop
  endfacet
  facet normal 0 0 -1
    outer loop
      vertex -9.78148 -2.07912 -1.75
      vertex -9.13546 4.06737 -1.75
      vertex -8.09017 5.87785 -1.75
    endloop
  endfacet
  facet normal 0 0 -1
    outer loop
      vertex -9.78148 -2.07912 -1.75
      vertex -8.09017 5.87785 -1.75
      vertex -6.69131 7.43145 -1.75
    endloop
  endfacet
  facet normal 0 0 -1
    outer loop
      vertex -9.78148 -2.07912 -1.75
      vertex -6.69131 7.43145 -1.75
      vertex -5 8.66025 -1.75
    endloop
  endfacet
  facet normal 0 0 -1
    outer loop
      vertex -9.78148 -2.07912 -1.75
      vertex -5 8.66025 -1.75
      vertex -3.09017 9.51056 -1.75
    endloop
  endfacet
  facet normal 0 0 -1
    outer loop
      vertex -9.78148 -2.07912 -1.75
      vertex -3.09017 9.51056 -1.75
      vertex -1.04529 9.94522 -1.75
    endloop
  endfacet
  facet normal 0 0 -1
    outer loop
      vertex -9.78148 -2.07912 -1.75
      vertex -1.04529 9.94522 -1.75
      vertex 1.04529 9.94522 -1.75
    endloop
  endfacet
  facet normal 0 0 -1
    outer loop
      vertex -9.78148 -2.07912 -1.75
      vertex 1.04529 9.94522 -1.75
      vertex 3.09017 9.51056 -1.75
    endloop
  endfacet
  facet normal 0 0 -1
    outer loop
      vertex 3.5897 1.87126 -1.75
      vertex 3.09017 9.51056 -1.75
      vertex 28.4271 2.85317 -1.75
    endloop
  endfacet
  facet normal 0 0 -1
    outer loop
      vertex 27.837 0.385487 -1.75
      vertex 29.9271 1.76336 -1.75
      vertex 30.5 0 -1.75
    endloop
  endfacet
  facet normal 0 0 -1
    outer loop
      vertex 0.488285 -4.02139 -1.75
      vertex 28.4271 -2.85317 -1.75
      vertex 3.09017 -9.51056 -1.75
    endloop
  endfacet
  facet normal 0 0 -1
    outer loop
      vertex -9.78148 -2.07912 -1.75
      vertex 3.09017 -9.51056 -1.75
      vertex 1.04529 -9.94522 -1.75
    endloop
  endfacet
  facet normal 0 0 -1
    outer loop
      vertex -9.78148 -2.07912 -1.75
      vertex 1.04529 -9.94522 -1.75
      vertex -1.04529 -9.94522 -1.75
    endloop
  endfacet
  facet normal 0 0 -1
    outer loop
      vertex -9.78148 -2.07912 -1.75
      vertex -1.04529 -9.94522 -1.75
      vertex -3.09017 -9.51056 -1.75
    endloop
  endfacet
  facet normal 0 0 -1
    outer loop
      vertex -9.78148 -2.07912 -1.75
      vertex -3.09017 -9.51056 -1.75
      vertex -5 -8.66025 -1.75
    endloop
  endfacet
  facet normal 0 0 -1
    outer loop
      vertex -9.78148 -2.07912 -1.75
      vertex -5 -8.66025 -1.75
      vertex -6.69131 -7.43145 -1.75
    endloop
  endfacet
  facet normal 0 0 -1
    outer loop
      vertex -9.78148 -2.07912 -1.75
      vertex -6.69131 -7.43145 -1.75
      vertex -8.09017 -5.87785 -1.75
    endloop
  endfacet
  facet normal 0 0 -1
    outer loop
      vertex -9.78148 -2.07912 -1.75
      vertex -8.09017 -5.87785 -1.75
      vertex -9.13546 -4.06737 -1.75
    endloop
  endfacet
  facet normal 0 0 -1
    outer loop
      vertex -3.9278 0.97975 -1.75
      vertex -9.78148 -2.07912 -1.75
      vertex -3.03216 2.68626 -1.75
    endloop
  endfacet
  facet normal 0 0 -1
    outer loop
      vertex -9.78148 -2.07912 -1.75
      vertex -3.93321 0.969449 -1.75
      vertex -3.93321 -0.969449 -1.75
    endloop
  endfacet
  facet normal 0 0 -1
    outer loop
      vertex -1.44605 -3.78107 -1.75
      vertex 3.09017 -9.51056 -1.75
      vertex -3.03216 -2.68626 -1.75
    endloop
  endfacet
  facet normal 0 0 -1
    outer loop
      vertex -9.78148 -2.07912 -1.75
      vertex -3.03757 -2.67596 -1.75
      vertex -3.03216 -2.68626 -1.75
    endloop
  endfacet
  facet normal 0 0 -1
    outer loop
      vertex -9.78148 -2.07912 -1.75
      vertex -3.03216 -2.68626 -1.75
      vertex 3.09017 -9.51056 -1.75
    endloop
  endfacet
  facet normal 0 0 -1
    outer loop
      vertex 3.5792 -1.89127 -1.75
      vertex 28.4271 -2.85317 -1.75
      vertex 2.30119 -3.33384 -1.75
    endloop
  endfacet
  facet normal 0 0 -1
    outer loop
      vertex 2.29031 -3.33797 -1.75
      vertex 28.4271 -2.85317 -1.75
      vertex 0.488285 -4.02139 -1.75
    endloop
  endfacet
  facet normal 0 0 -1
    outer loop
      vertex -1.44605 -3.78107 -1.75
      vertex -1.43648 -3.78768 -1.75
      vertex 3.09017 -9.51056 -1.75
    endloop
  endfacet
  facet normal 0 0 -1
    outer loop
      vertex -1.43648 -3.78768 -1.75
      vertex 0.476736 -4.01998 -1.75
      vertex 3.09017 -9.51056 -1.75
    endloop
  endfacet
  facet normal 0 0 -1
    outer loop
      vertex 0.476736 -4.01998 -1.75
      vertex 0.488285 -4.02139 -1.75
      vertex 3.09017 -9.51056 -1.75
    endloop
  endfacet
  facet normal 0 0 -1
    outer loop
      vertex 2.30119 -3.33384 -1.75
      vertex 28.4271 -2.85317 -1.75
      vertex 2.29031 -3.33797 -1.75
    endloop
  endfacet
  facet normal 0 0 -1
    outer loop
      vertex 4.04814 -0.0112954 -1.75
      vertex 29.9271 1.76336 -1.75
      vertex 27.3837 0.509563 -1.75
    endloop
  endfacet
  facet normal 0 0 -1
    outer loop
      vertex 3.5897 1.87126 -1.75
      vertex 28.4271 2.85317 -1.75
      vertex 4.05092 0 -1.75
    endloop
  endfacet
  facet normal 0 0 -1
    outer loop
      vertex 4.04814 -0.0112954 -1.75
      vertex 4.05092 0 -1.75
      vertex 28.4271 2.85317 -1.75
    endloop
  endfacet
  facet normal 0 0 -1
    outer loop
      vertex 3.58691 1.88256 -1.75
      vertex 3.09017 9.51056 -1.75
      vertex 3.5897 1.87126 -1.75
    endloop
  endfacet
  facet normal 0 0 -1
    outer loop
      vertex -3.02258 2.69287 -1.75
      vertex 3.09017 9.51056 -1.75
      vertex -1.43648 3.78768 -1.75
    endloop
  endfacet
  facet normal 0 0 -1
    outer loop
      vertex 2.3089 3.32514 -1.75
      vertex 3.09017 9.51056 -1.75
      vertex 3.58691 1.88256 -1.75
    endloop
  endfacet
  facet normal 0 0 -1
    outer loop
      vertex 2.30119 3.33384 -1.75
      vertex 3.09017 9.51056 -1.75
      vertex 2.3089 3.32514 -1.75
    endloop
  endfacet
  facet normal 0 0 -1
    outer loop
      vertex 0.499162 4.01726 -1.75
      vertex 3.09017 9.51056 -1.75
      vertex 2.30119 3.33384 -1.75
    endloop
  endfacet
  facet normal 0 0 -1
    outer loop
      vertex 0.488285 4.02139 -1.75
      vertex 3.09017 9.51056 -1.75
      vertex 0.499162 4.01726 -1.75
    endloop
  endfacet
  facet normal 0 0 -1
    outer loop
      vertex -1.42493 3.78908 -1.75
      vertex 3.09017 9.51056 -1.75
      vertex 0.488285 4.02139 -1.75
    endloop
  endfacet
  facet normal 0 0 -1
    outer loop
      vertex -1.43648 3.78768 -1.75
      vertex 3.09017 9.51056 -1.75
      vertex -1.42493 3.78908 -1.75
    endloop
  endfacet
  facet normal 0 0 -1
    outer loop
      vertex -3.03216 2.68626 -1.75
      vertex 3.09017 9.51056 -1.75
      vertex -3.02258 2.69287 -1.75
    endloop
  endfacet
  facet normal 0 0 -1
    outer loop
      vertex -9.78148 -2.07912 -1.75
      vertex 3.09017 9.51056 -1.75
      vertex -3.03216 2.68626 -1.75
    endloop
  endfacet
  facet normal 0 0 -1
    outer loop
      vertex 27.0291 -0.226777 -1.75
      vertex 4.04814 -0.0112954 -1.75
      vertex 27.0291 0.226777 -1.75
    endloop
  endfacet
  facet normal 0 0 -1
    outer loop
      vertex -9.78148 -2.07912 -1.75
      vertex -3.9278 0.97975 -1.75
      vertex -3.93321 0.969449 -1.75
    endloop
  endfacet
  facet normal 0 0 -1
    outer loop
      vertex 27.0492 0.242799 -1.75
      vertex 4.04814 -0.0112954 -1.75
      vertex 27.3837 0.509563 -1.75
    endloop
  endfacet
  facet normal 0 0 -1
    outer loop
      vertex 27.3636 -0.493542 -1.75
      vertex 3.58691 -1.88256 -1.75
      vertex 27.0291 -0.226777 -1.75
    endloop
  endfacet
  facet normal 0 0 -1
    outer loop
      vertex 4.04814 -0.0112954 -1.75
      vertex 27.0492 0.242799 -1.75
      vertex 27.0291 0.226777 -1.75
    endloop
  endfacet
  facet normal 0 0 -1
    outer loop
      vertex 28.0115 -0.0231518 -1.75
      vertex 30.5 0 -1.75
      vertex 27.8259 -0.408638 -1.75
    endloop
  endfacet
  facet normal 0 0 -1
    outer loop
      vertex 3.5792 -1.89127 -1.75
      vertex 27.3636 -0.493542 -1.75
      vertex 27.3837 -0.509563 -1.75
    endloop
  endfacet
  facet normal 0 0 -1
    outer loop
      vertex 3.5792 -1.89127 -1.75
      vertex 27.3837 -0.509563 -1.75
      vertex 29.9271 -1.76336 -1.75
    endloop
  endfacet
  facet normal 0 0 -1
    outer loop
      vertex 27.8259 -0.408638 -1.75
      vertex 30.5 0 -1.75
      vertex 27.8008 -0.414356 -1.75
    endloop
  endfacet
  facet normal 0 0 -1
    outer loop
      vertex 27.8008 -0.414356 -1.75
      vertex 30.5 0 -1.75
      vertex 29.9271 -1.76336 -1.75
    endloop
  endfacet
  facet normal 0 0 -1
    outer loop
      vertex 27.8008 -0.414356 -1.75
      vertex 29.9271 -1.76336 -1.75
      vertex 27.3837 -0.509563 -1.75
    endloop
  endfacet
  facet normal 0 0 -1
    outer loop
      vertex 27.3636 -0.493542 -1.75
      vertex 3.5792 -1.89127 -1.75
      vertex 3.58691 -1.88256 -1.75
    endloop
  endfacet
  facet normal 0 0 -1
    outer loop
      vertex 27.837 0.385487 -1.75
      vertex 30.5 0 -1.75
      vertex 28.0227 0 -1.75
    endloop
  endfacet
  facet normal 0 0 -1
    outer loop
      vertex 28.0115 -0.0231518 -1.75
      vertex 28.0227 0 -1.75
      vertex 30.5 0 -1.75
    endloop
  endfacet
  facet normal 0 0 -1
    outer loop
      vertex 27.8259 0.408638 -1.75
      vertex 29.9271 1.76336 -1.75
      vertex 27.837 0.385487 -1.75
    endloop
  endfacet
  facet normal 0 0 -1
    outer loop
      vertex 27.4087 0.503845 -1.75
      vertex 29.9271 1.76336 -1.75
      vertex 27.8259 0.408638 -1.75
    endloop
  endfacet
  facet normal 0 0 -1
    outer loop
      vertex 27.3837 0.509563 -1.75
      vertex 29.9271 1.76336 -1.75
      vertex 27.4087 0.503845 -1.75
    endloop
  endfacet
  facet normal 0 0 -1
    outer loop
      vertex 4.04814 -0.0112954 -1.75
      vertex 27.0291 -0.226777 -1.75
      vertex 3.58691 -1.88256 -1.75
    endloop
  endfacet
  facet normal 0 0 -1
    outer loop
      vertex -3.03757 -2.67596 -1.75
      vertex -9.78148 -2.07912 -1.75
      vertex -3.93321 -0.969449 -1.75
    endloop
  endfacet
  facet normal 0 0 -1
    outer loop
      vertex 3.5792 -1.89127 -1.75
      vertex 29.9271 -1.76336 -1.75
      vertex 28.4271 -2.85317 -1.75
    endloop
  endfacet
  facet normal 0 0 -1
    outer loop
      vertex 4.04814 -0.0112954 -1.75
      vertex 28.4271 2.85317 -1.75
      vertex 29.9271 1.76336 -1.75
    endloop
  endfacet
  facet normal -0.994522 0.104528 0
    outer loop
      vertex -10 0 -1.75
      vertex -10 0 1.75
      vertex -9.78148 2.07912 -1.75
    endloop
  endfacet
  facet normal -0.994522 0.104528 0
    outer loop
      vertex -9.78148 2.07912 -1.75
      vertex -10 0 1.75
      vertex -9.78148 2.07912 1.75
    endloop
  endfacet
  facet normal 0 0 1
    outer loop
      vertex -9.78148 2.07912 1.75
      vertex -10 0 1.75
      vertex -9.78148 -2.07912 1.75
    endloop
  endfacet
  facet normal 0 0 1
    outer loop
      vertex -8.09017 -5.87785 1.75
      vertex -9.78148 2.07912 1.75
      vertex -9.13546 -4.06737 1.75
    endloop
  endfacet
  facet normal 0 0 1
    outer loop
      vertex -9.13546 -4.06737 1.75
      vertex -9.78148 2.07912 1.75
      vertex -9.78148 -2.07912 1.75
    endloop
  endfacet
  facet normal 0 0 1
    outer loop
      vertex -6.69131 -7.43145 1.75
      vertex -9.78148 2.07912 1.75
      vertex -8.09017 -5.87785 1.75
    endloop
  endfacet
  facet normal 0 0 1
    outer loop
      vertex -5 -8.66025 1.75
      vertex -9.78148 2.07912 1.75
      vertex -6.69131 -7.43145 1.75
    endloop
  endfacet
  facet normal 0 0 1
    outer loop
      vertex -3.09017 -9.51056 1.75
      vertex -9.78148 2.07912 1.75
      vertex -5 -8.66025 1.75
    endloop
  endfacet
  facet normal 0 0 1
    outer loop
      vertex -1.04529 -9.94522 1.75
      vertex -9.78148 2.07912 1.75
      vertex -3.09017 -9.51056 1.75
    endloop
  endfacet
  facet normal 0 0 1
    outer loop
      vertex 1.04529 -9.94522 1.75
      vertex -9.78148 2.07912 1.75
      vertex -1.04529 -9.94522 1.75
    endloop
  endfacet
  facet normal 0 0 1
    outer loop
      vertex 3.09017 -9.51056 1.75
      vertex -9.78148 2.07912 1.75
      vertex 1.04529 -9.94522 1.75
    endloop
  endfacet
  facet normal 0 0 1
    outer loop
      vertex -1.33415 -1.18196 1.75
      vertex -9.78148 2.07912 1.75
      vertex 3.09017 -9.51056 1.75
    endloop
  endfacet
  facet normal 0 0 1
    outer loop
      vertex 3.09017 9.51056 1.75
      vertex -9.78148 2.07912 1.75
      vertex 28.4271 2.85317 1.75
    endloop
  endfacet
  facet normal 0 0 1
    outer loop
      vertex 1.04529 9.94522 1.75
      vertex -9.78148 2.07912 1.75
      vertex 3.09017 9.51056 1.75
    endloop
  endfacet
  facet normal 0 0 1
    outer loop
      vertex -1.04529 9.94522 1.75
      vertex -9.78148 2.07912 1.75
      vertex 1.04529 9.94522 1.75
    endloop
  endfacet
  facet normal 0 0 1
    outer loop
      vertex -3.09017 9.51056 1.75
      vertex -9.78148 2.07912 1.75
      vertex -1.04529 9.94522 1.75
    endloop
  endfacet
  facet normal 0 0 1
    outer loop
      vertex -5 8.66025 1.75
      vertex -9.78148 2.07912 1.75
      vertex -3.09017 9.51056 1.75
    endloop
  endfacet
  facet normal 0 0 1
    outer loop
      vertex -6.69131 7.43145 1.75
      vertex -9.78148 2.07912 1.75
      vertex -5 8.66025 1.75
    endloop
  endfacet
  facet normal 0 0 1
    outer loop
      vertex -8.09017 5.87785 1.75
      vertex -9.78148 2.07912 1.75
      vertex -6.69131 7.43145 1.75
    endloop
  endfacet
  facet normal 0 0 1
    outer loop
      vertex -9.13546 4.06737 1.75
      vertex -9.78148 2.07912 1.75
      vertex -8.09017 5.87785 1.75
    endloop
  endfacet
  facet normal 0 0 1
    outer loop
      vertex 25.5995 -0.91524 1.75
      vertex 0.214845 1.76941 1.75
      vertex 0.987142 1.47652 1.75
    endloop
  endfacet
  facet normal 0 0 1
    outer loop
      vertex -1.73061 0.426558 1.75
      vertex -9.78148 2.07912 1.75
      vertex -1.73061 -0.426558 1.75
    endloop
  endfacet
  facet normal 0 0 1
    outer loop
      vertex -1.31181 -1.19737 1.75
      vertex -1.33415 -1.18196 1.75
      vertex 3.09017 -9.51056 1.75
    endloop
  endfacet
  facet normal 0 0 1
    outer loop
      vertex -1.33415 1.18196 1.75
      vertex -9.78148 2.07912 1.75
      vertex -1.34677 1.15792 1.75
    endloop
  endfacet
  facet normal 0 0 1
    outer loop
      vertex -0.632051 1.66658 1.75
      vertex -9.78148 2.07912 1.75
      vertex -0.65439 1.65116 1.75
    endloop
  endfacet
  facet normal 0 0 1
    outer loop
      vertex 0.187899 1.76614 1.75
      vertex -9.78148 2.07912 1.75
      vertex -0.632051 1.66658 1.75
    endloop
  endfacet
  facet normal 0 0 1
    outer loop
      vertex 0.214845 1.76941 1.75
      vertex -9.78148 2.07912 1.75
      vertex 0.187899 1.76614 1.75
    endloop
  endfacet
  facet normal 0 0 1
    outer loop
      vertex 27.0306 2.05652 1.75
      vertex 29.9271 1.76336 1.75
      vertex 28.4271 2.85317 1.75
    endloop
  endfacet
  facet normal 0 0 1
    outer loop
      vertex 28.8152 -1.6492 1.75
      vertex 27.0365 -2.05518 1.75
      vertex 29.9271 -1.76336 1.75
    endloop
  endfacet
  facet normal 0 0 1
    outer loop
      vertex 27.0306 -2.05652 1.75
      vertex 1.56024 0.848644 1.75
      vertex 28.4271 -2.85317 1.75
    endloop
  endfacet
  facet normal 0 0 1
    outer loop
      vertex 1.56024 0.848644 1.75
      vertex 1.57824 0.828326 1.75
      vertex 28.4271 -2.85317 1.75
    endloop
  endfacet
  facet normal 0 0 1
    outer loop
      vertex 28.4271 -2.85317 1.75
      vertex 1.77591 0.0263558 1.75
      vertex 1.78241 0 1.75
    endloop
  endfacet
  facet normal 0 0 1
    outer loop
      vertex 28.4271 -2.85317 1.75
      vertex 1.58474 -0.801971 1.75
      vertex 3.09017 -9.51056 1.75
    endloop
  endfacet
  facet normal 0 0 1
    outer loop
      vertex 1.58474 -0.801971 1.75
      vertex 1.57824 -0.828326 1.75
      vertex 3.09017 -9.51056 1.75
    endloop
  endfacet
  facet normal 0 0 1
    outer loop
      vertex 1.57824 -0.828326 1.75
      vertex 1.03052 -1.44657 1.75
      vertex 3.09017 -9.51056 1.75
    endloop
  endfacet
  facet normal 0 0 1
    outer loop
      vertex 1.03052 -1.44657 1.75
      vertex 1.01252 -1.46689 1.75
      vertex 3.09017 -9.51056 1.75
    endloop
  endfacet
  facet normal 0 0 1
    outer loop
      vertex 1.01252 -1.46689 1.75
      vertex 0.240226 -1.75979 1.75
      vertex 3.09017 -9.51056 1.75
    endloop
  endfacet
  facet normal 0 0 1
    outer loop
      vertex 0.240226 -1.75979 1.75
      vertex 0.214845 -1.76941 1.75
      vertex 3.09017 -9.51056 1.75
    endloop
  endfacet
  facet normal 0 0 1
    outer loop
      vertex 0.214845 -1.76941 1.75
      vertex -0.605104 -1.66985 1.75
      vertex 3.09017 -9.51056 1.75
    endloop
  endfacet
  facet normal 0 0 1
    outer loop
      vertex -0.605104 -1.66985 1.75
      vertex -0.632051 -1.66658 1.75
      vertex 3.09017 -9.51056 1.75
    endloop
  endfacet
  facet normal 0 0 1
    outer loop
      vertex -0.632051 -1.66658 1.75
      vertex -1.31181 -1.19737 1.75
      vertex 3.09017 -9.51056 1.75
    endloop
  endfacet
  facet normal 0 0 1
    outer loop
      vertex -1.73061 -0.426558 1.75
      vertex -9.78148 2.07912 1.75
      vertex -1.33415 -1.18196 1.75
    endloop
  endfacet
  facet normal 0 0 1
    outer loop
      vertex -1.73061 -0.426558 1.75
      vertex -1.33415 -1.18196 1.75
      vertex -1.718 -0.450593 1.75
    endloop
  endfacet
  facet normal 0 0 1
    outer loop
      vertex 27.0306 -2.05652 1.75
      vertex 0.987142 1.47652 1.75
      vertex 1.01252 1.46689 1.75
    endloop
  endfacet
  facet normal 0 0 1
    outer loop
      vertex 25.5995 0.91524 1.75
      vertex 27.0259 2.05277 1.75
      vertex 0.214845 1.76941 1.75
    endloop
  endfacet
  facet normal 0 0 1
    outer loop
      vertex 28.8152 1.6492 1.75
      vertex 30.5 0 1.75
      vertex 29.9271 1.76336 1.75
    endloop
  endfacet
  facet normal 0 0 1
    outer loop
      vertex 27.0306 2.05652 1.75
      vertex -9.78148 2.07912 1.75
      vertex 27.0259 2.05277 1.75
    endloop
  endfacet
  facet normal 0 0 1
    outer loop
      vertex 28.8152 1.6492 1.75
      vertex 29.6068 0.00542939 1.75
      vertex 30.5 0 1.75
    endloop
  endfacet
  facet normal 0 0 1
    outer loop
      vertex 28.4271 2.85317 1.75
      vertex -9.78148 2.07912 1.75
      vertex 27.0306 2.05652 1.75
    endloop
  endfacet
  facet normal 0 0 1
    outer loop
      vertex 29.9271 1.76336 1.75
      vertex 28.8093 1.65055 1.75
      vertex 28.8152 1.6492 1.75
    endloop
  endfacet
  facet normal 0 0 1
    outer loop
      vertex 0.214845 1.76941 1.75
      vertex 27.0259 2.05277 1.75
      vertex -9.78148 2.07912 1.75
    endloop
  endfacet
  facet normal 0 0 1
    outer loop
      vertex 27.0306 -2.05652 1.75
      vertex 25.6042 -0.918997 1.75
      vertex 0.987142 1.47652 1.75
    endloop
  endfacet
  facet normal 0 0 1
    outer loop
      vertex 30.5 0 1.75
      vertex 29.6068 0.00542939 1.75
      vertex 29.6094 0 1.75
    endloop
  endfacet
  facet normal 0 0 1
    outer loop
      vertex 27.0306 2.05652 1.75
      vertex 28.8093 1.65055 1.75
      vertex 29.9271 1.76336 1.75
    endloop
  endfacet
  facet normal 0 0 1
    outer loop
      vertex 28.8178 -1.64378 1.75
      vertex 28.8152 -1.6492 1.75
      vertex 29.9271 -1.76336 1.75
    endloop
  endfacet
  facet normal 0 0 1
    outer loop
      vertex 29.9271 -1.76336 1.75
      vertex 27.0365 -2.05518 1.75
      vertex 28.4271 -2.85317 1.75
    endloop
  endfacet
  facet normal 0 0 1
    outer loop
      vertex 27.0365 -2.05518 1.75
      vertex 27.0306 -2.05652 1.75
      vertex 28.4271 -2.85317 1.75
    endloop
  endfacet
  facet normal 0 0 1
    outer loop
      vertex 27.0306 -2.05652 1.75
      vertex 1.01252 1.46689 1.75
      vertex 1.56024 0.848644 1.75
    endloop
  endfacet
  facet normal 0 0 1
    outer loop
      vertex 25.5995 -0.91524 1.75
      vertex 0.987142 1.47652 1.75
      vertex 25.6042 -0.918997 1.75
    endloop
  endfacet
  facet normal 0 0 1
    outer loop
      vertex 1.78241 0 1.75
      vertex 1.58474 -0.801971 1.75
      vertex 28.4271 -2.85317 1.75
    endloop
  endfacet
  facet normal 0 0 1
    outer loop
      vertex -1.73061 0.426558 1.75
      vertex -1.34677 1.15792 1.75
      vertex -9.78148 2.07912 1.75
    endloop
  endfacet
  facet normal 0 0 1
    outer loop
      vertex 29.6094 0 1.75
      vertex 28.8178 -1.64378 1.75
      vertex 29.9271 -1.76336 1.75
    endloop
  endfacet
  facet normal 0 0 1
    outer loop
      vertex 29.6094 0 1.75
      vertex 29.9271 -1.76336 1.75
      vertex 30.5 0 1.75
    endloop
  endfacet
  facet normal 0 0 1
    outer loop
      vertex 1.57824 0.828326 1.75
      vertex 1.77591 0.0263558 1.75
      vertex 28.4271 -2.85317 1.75
    endloop
  endfacet
  facet normal 0 0 1
    outer loop
      vertex 25.5995 -0.91524 1.75
      vertex 25.5995 0.91524 1.75
      vertex 0.214845 1.76941 1.75
    endloop
  endfacet
  facet normal 0 0 1
    outer loop
      vertex -1.33415 1.18196 1.75
      vertex -0.65439 1.65116 1.75
      vertex -9.78148 2.07912 1.75
    endloop
  endfacet
  facet normal -0.951057 -0.309017 0
    outer loop
      vertex -9.78148 -2.07912 -1.75
      vertex -9.13546 -4.06737 -1.75
      vertex -9.78148 -2.07912 1.75
    endloop
  endfacet
  facet normal -0.951057 -0.309017 0
    outer loop
      vertex -9.78148 -2.07912 1.75
      vertex -9.13546 -4.06737 -1.75
      vertex -9.13546 -4.06737 1.75
    endloop
  endfacet
  facet normal -0.866025 -0.5 0
    outer loop
      vertex -9.13546 -4.06737 -1.75
      vertex -8.09017 -5.87785 -1.75
      vertex -9.13546 -4.06737 1.75
    endloop
  endfacet
  facet normal -0.866025 -0.5 0
    outer loop
      vertex -9.13546 -4.06737 1.75
      vertex -8.09017 -5.87785 -1.75
      vertex -8.09017 -5.87785 1.75
    endloop
  endfacet
  facet normal -0.743145 -0.669131 0
    outer loop
      vertex -8.09017 -5.87785 -1.75
      vertex -6.69131 -7.43145 -1.75
      vertex -8.09017 -5.87785 1.75
    endloop
  endfacet
  facet normal -0.743145 -0.669131 0
    outer loop
      vertex -8.09017 -5.87785 1.75
      vertex -6.69131 -7.43145 -1.75
      vertex -6.69131 -7.43145 1.75
    endloop
  endfacet
  facet normal -0.587785 -0.809017 0
    outer loop
      vertex -6.69131 -7.43145 1.75
      vertex -6.69131 -7.43145 -1.75
      vertex -5 -8.66025 -1.75
    endloop
  endfacet
  facet normal -0.587785 -0.809017 0
    outer loop
      vertex -5 -8.66025 1.75
      vertex -6.69131 -7.43145 1.75
      vertex -5 -8.66025 -1.75
    endloop
  endfacet
  facet normal -0.406737 -0.913545 0
    outer loop
      vertex -5 -8.66025 1.75
      vertex -5 -8.66025 -1.75
      vertex -3.09017 -9.51056 -1.75
    endloop
  endfacet
  facet normal -0.406737 -0.913545 0
    outer loop
      vertex -3.09017 -9.51056 1.75
      vertex -5 -8.66025 1.75
      vertex -3.09017 -9.51056 -1.75
    endloop
  endfacet
  facet normal -0.207912 -0.978148 0
    outer loop
      vertex -3.09017 -9.51056 1.75
      vertex -3.09017 -9.51056 -1.75
      vertex -1.04529 -9.94522 -1.75
    endloop
  endfacet
  facet normal -0.207912 -0.978148 0
    outer loop
      vertex -1.04529 -9.94522 1.75
      vertex -3.09017 -9.51056 1.75
      vertex -1.04529 -9.94522 -1.75
    endloop
  endfacet
  facet normal 0 -1 0
    outer loop
      vertex -1.04529 -9.94522 1.75
      vertex -1.04529 -9.94522 -1.75
      vertex 1.04529 -9.94522 -1.75
    endloop
  endfacet
  facet normal 0 -1 0
    outer loop
      vertex 1.04529 -9.94522 1.75
      vertex -1.04529 -9.94522 1.75
      vertex 1.04529 -9.94522 -1.75
    endloop
  endfacet
  facet normal 0.207912 -0.978148 0
    outer loop
      vertex 1.04529 -9.94522 1.75
      vertex 1.04529 -9.94522 -1.75
      vertex 3.09017 -9.51056 -1.75
    endloop
  endfacet
  facet normal 0.207912 -0.978148 0
    outer loop
      vertex 3.09017 -9.51056 1.75
      vertex 1.04529 -9.94522 1.75
      vertex 3.09017 -9.51056 -1.75
    endloop
  endfacet
  facet normal 0.254129 -0.96717 0
    outer loop
      vertex 3.09017 -9.51056 1.75
      vertex 3.09017 -9.51056 -1.75
      vertex 28.4271 -2.85317 -1.75
    endloop
  endfacet
  facet normal 0.254129 -0.96717 0
    outer loop
      vertex 28.4271 -2.85317 1.75
      vertex 3.09017 -9.51056 1.75
      vertex 28.4271 -2.85317 -1.75
    endloop
  endfacet
  facet normal 0.587785 -0.809017 0
    outer loop
      vertex 28.4271 -2.85317 1.75
      vertex 28.4271 -2.85317 -1.75
      vertex 29.9271 -1.76336 -1.75
    endloop
  endfacet
  facet normal 0.587785 -0.809017 0
    outer loop
      vertex 29.9271 -1.76336 1.75
      vertex 28.4271 -2.85317 1.75
      vertex 29.9271 -1.76336 -1.75
    endloop
  endfacet
  facet normal 0.951057 -0.309017 0
    outer loop
      vertex 29.9271 -1.76336 1.75
      vertex 29.9271 -1.76336 -1.75
      vertex 30.5 0 -1.75
    endloop
  endfacet
  facet normal 0.951057 -0.309017 0
    outer loop
      vertex 30.5 0 1.75
      vertex 29.9271 -1.76336 1.75
      vertex 30.5 0 -1.75
    endloop
  endfacet
  facet normal 0.951057 0.309017 0
    outer loop
      vertex 30.5 0 -1.75
      vertex 29.9271 1.76336 -1.75
      vertex 29.9271 1.76336 1.75
    endloop
  endfacet
  facet normal 0.951057 0.309017 0
    outer loop
      vertex 30.5 0 1.75
      vertex 30.5 0 -1.75
      vertex 29.9271 1.76336 1.75
    endloop
  endfacet
  facet normal 0.587785 0.809017 0
    outer loop
      vertex 28.4271 2.85317 -1.75
      vertex 28.4271 2.85317 1.75
      vertex 29.9271 1.76336 -1.75
    endloop
  endfacet
  facet normal 0.587785 0.809017 0
    outer loop
      vertex 29.9271 1.76336 -1.75
      vertex 28.4271 2.85317 1.75
      vertex 29.9271 1.76336 1.75
    endloop
  endfacet
  facet normal 0.254129 0.96717 0
    outer loop
      vertex 3.09017 9.51056 -1.75
      vertex 3.09017 9.51056 1.75
      vertex 28.4271 2.85317 -1.75
    endloop
  endfacet
  facet normal 0.254129 0.96717 0
    outer loop
      vertex 28.4271 2.85317 -1.75
      vertex 3.09017 9.51056 1.75
      vertex 28.4271 2.85317 1.75
    endloop
  endfacet
  facet normal 0.207912 0.978148 0
    outer loop
      vertex 1.04529 9.94522 -1.75
      vertex 1.04529 9.94522 1.75
      vertex 3.09017 9.51056 -1.75
    endloop
  endfacet
  facet normal 0.207912 0.978148 0
    outer loop
      vertex 3.09017 9.51056 -1.75
      vertex 1.04529 9.94522 1.75
      vertex 3.09017 9.51056 1.75
    endloop
  endfacet
  facet normal 0 1 0
    outer loop
      vertex -1.04529 9.94522 -1.75
      vertex -1.04529 9.94522 1.75
      vertex 1.04529 9.94522 -1.75
    endloop
  endfacet
  facet normal 0 1 0
    outer loop
      vertex 1.04529 9.94522 -1.75
      vertex -1.04529 9.94522 1.75
      vertex 1.04529 9.94522 1.75
    endloop
  endfacet
  facet normal -0.207912 0.978148 0
    outer loop
      vertex -3.09017 9.51056 -1.75
      vertex -3.09017 9.51056 1.75
      vertex -1.04529 9.94522 -1.75
    endloop
  endfacet
  facet normal -0.207912 0.978148 0
    outer loop
      vertex -1.04529 9.94522 -1.75
      vertex -3.09017 9.51056 1.75
      vertex -1.04529 9.94522 1.75
    endloop
  endfacet
  facet normal -0.406737 0.913545 0
    outer loop
      vertex -5 8.66025 -1.75
      vertex -5 8.66025 1.75
      vertex -3.09017 9.51056 -1.75
    endloop
  endfacet
  facet normal -0.406737 0.913545 0
    outer loop
      vertex -3.09017 9.51056 -1.75
      vertex -5 8.66025 1.75
      vertex -3.09017 9.51056 1.75
    endloop
  endfacet
  facet normal -0.587785 0.809017 0
    outer loop
      vertex -6.69131 7.43145 -1.75
      vertex -6.69131 7.43145 1.75
      vertex -5 8.66025 -1.75
    endloop
  endfacet
  facet normal -0.587785 0.809017 0
    outer loop
      vertex -5 8.66025 -1.75
      vertex -6.69131 7.43145 1.75
      vertex -5 8.66025 1.75
    endloop
  endfacet
  facet normal -0.743145 0.669131 0
    outer loop
      vertex -8.09017 5.87785 -1.75
      vertex -8.09017 5.87785 1.75
      vertex -6.69131 7.43145 -1.75
    endloop
  endfacet
  facet normal -0.743145 0.669131 0
    outer loop
      vertex -6.69131 7.43145 -1.75
      vertex -8.09017 5.87785 1.75
      vertex -6.69131 7.43145 1.75
    endloop
  endfacet
  facet normal -0.866025 0.5 0
    outer loop
      vertex -9.13546 4.06737 -1.75
      vertex -9.13546 4.06737 1.75
      vertex -8.09017 5.87785 -1.75
    endloop
  endfacet
  facet normal -0.866025 0.5 0
    outer loop
      vertex -8.09017 5.87785 -1.75
      vertex -9.13546 4.06737 1.75
      vertex -8.09017 5.87785 1.75
    endloop
  endfacet
  facet normal -0.951057 0.309017 0
    outer loop
      vertex -9.78148 2.07912 -1.75
      vertex -9.78148 2.07912 1.75
      vertex -9.13546 4.06737 -1.75
    endloop
  endfacet
  facet normal -0.951057 0.309017 0
    outer loop
      vertex -9.13546 4.06737 -1.75
      vertex -9.78148 2.07912 1.75
      vertex -9.13546 4.06737 1.75
    endloop
  endfacet
  facet normal 0.749409 -0.393319 -0.532622
    outer loop
      vertex -3.9278 0.97975 -1.75
      vertex -1.34677 1.15792 1.75
      vertex -1.73061 0.426558 1.75
    endloop
  endfacet
  facet normal 0.749409 -0.393319 -0.532622
    outer loop
      vertex -3.93321 0.969449 -1.75
      vertex -3.9278 0.97975 -1.75
      vertex -1.73061 0.426558 1.75
    endloop
  endfacet
  facet normal 0.846354 0 -0.532622
    outer loop
      vertex -3.93321 0.969449 -1.75
      vertex -1.73061 0.426558 1.75
      vertex -1.73061 -0.426558 1.75
    endloop
  endfacet
  facet normal 0.846354 0 -0.532622
    outer loop
      vertex -3.93321 -0.969449 -1.75
      vertex -3.93321 0.969449 -1.75
      vertex -1.73061 -0.426558 1.75
    endloop
  endfacet
  facet normal 0.749409 -0.39332 -0.532621
    outer loop
      vertex -3.03216 2.68626 -1.75
      vertex -1.33415 1.18196 1.75
      vertex -1.34677 1.15792 1.75
    endloop
  endfacet
  facet normal 0.749409 -0.39332 -0.532621
    outer loop
      vertex -3.9278 0.97975 -1.75
      vertex -3.03216 2.68626 -1.75
      vertex -1.34677 1.15792 1.75
    endloop
  endfacet
  facet normal 0.480783 -0.696536 -0.532621
    outer loop
      vertex -3.02258 2.69287 -1.75
      vertex -0.65439 1.65116 1.75
      vertex -1.33415 1.18196 1.75
    endloop
  endfacet
  facet normal 0.480783 -0.696536 -0.532621
    outer loop
      vertex -3.03216 2.68626 -1.75
      vertex -3.02258 2.69287 -1.75
      vertex -1.33415 1.18196 1.75
    endloop
  endfacet
  facet normal 0.480784 -0.696535 -0.532622
    outer loop
      vertex -1.43648 3.78768 -1.75
      vertex -0.632051 1.66658 1.75
      vertex -0.65439 1.65116 1.75
    endloop
  endfacet
  facet normal 0.480784 -0.696535 -0.532622
    outer loop
      vertex -3.02258 2.69287 -1.75
      vertex -1.43648 3.78768 -1.75
      vertex -0.65439 1.65116 1.75
    endloop
  endfacet
  facet normal 0.102017 -0.840182 -0.532622
    outer loop
      vertex -1.42493 3.78908 -1.75
      vertex 0.187899 1.76614 1.75
      vertex -0.632051 1.66658 1.75
    endloop
  endfacet
  facet normal 0.102017 -0.840182 -0.532622
    outer loop
      vertex -1.43648 3.78768 -1.75
      vertex -1.42493 3.78908 -1.75
      vertex -0.632051 1.66658 1.75
    endloop
  endfacet
  facet normal 0.102017 -0.840183 -0.532621
    outer loop
      vertex 0.488285 4.02139 -1.75
      vertex 0.214845 1.76941 1.75
      vertex 0.187899 1.76614 1.75
    endloop
  endfacet
  facet normal 0.102017 -0.840183 -0.532621
    outer loop
      vertex -1.42493 3.78908 -1.75
      vertex 0.488285 4.02139 -1.75
      vertex 0.187899 1.76614 1.75
    endloop
  endfacet
  facet normal -0.300121 -0.791354 -0.532621
    outer loop
      vertex 0.488285 4.02139 -1.75
      vertex 0.499162 4.01726 -1.75
      vertex 0.987142 1.47652 1.75
    endloop
  endfacet
  facet normal -0.300121 -0.791354 -0.532621
    outer loop
      vertex 0.214845 1.76941 1.75
      vertex 0.488285 4.02139 -1.75
      vertex 0.987142 1.47652 1.75
    endloop
  endfacet
  facet normal -0.300121 -0.791354 -0.532622
    outer loop
      vertex 2.30119 3.33384 -1.75
      vertex 1.01252 1.46689 1.75
      vertex 0.987142 1.47652 1.75
    endloop
  endfacet
  facet normal -0.300121 -0.791354 -0.532622
    outer loop
      vertex 0.499162 4.01726 -1.75
      vertex 2.30119 3.33384 -1.75
      vertex 0.987142 1.47652 1.75
    endloop
  endfacet
  facet normal -0.633504 -0.561236 -0.532622
    outer loop
      vertex 2.3089 3.32514 -1.75
      vertex 1.56024 0.848644 1.75
      vertex 2.30119 3.33384 -1.75
    endloop
  endfacet
  facet normal -0.633504 -0.561236 -0.532622
    outer loop
      vertex 2.30119 3.33384 -1.75
      vertex 1.56024 0.848644 1.75
      vertex 1.01252 1.46689 1.75
    endloop
  endfacet
  facet normal -0.633505 -0.561236 -0.532621
    outer loop
      vertex 3.58691 1.88256 -1.75
      vertex 1.57824 0.828326 1.75
      vertex 2.3089 3.32514 -1.75
    endloop
  endfacet
  facet normal -0.633505 -0.561236 -0.532621
    outer loop
      vertex 2.3089 3.32514 -1.75
      vertex 1.57824 0.828326 1.75
      vertex 1.56024 0.848644 1.75
    endloop
  endfacet
  facet normal -0.82176 -0.202546 -0.532621
    outer loop
      vertex 3.5897 1.87126 -1.75
      vertex 1.77591 0.0263558 1.75
      vertex 3.58691 1.88256 -1.75
    endloop
  endfacet
  facet normal -0.82176 -0.202546 -0.532621
    outer loop
      vertex 3.58691 1.88256 -1.75
      vertex 1.77591 0.0263558 1.75
      vertex 1.57824 0.828326 1.75
    endloop
  endfacet
  facet normal -0.82176 -0.202546 -0.532621
    outer loop
      vertex 4.05092 0 -1.75
      vertex 1.78241 0 1.75
      vertex 3.5897 1.87126 -1.75
    endloop
  endfacet
  facet normal -0.82176 -0.202546 -0.532621
    outer loop
      vertex 3.5897 1.87126 -1.75
      vertex 1.78241 0 1.75
      vertex 1.77591 0.0263558 1.75
    endloop
  endfacet
  facet normal -0.82176 0.202546 -0.532622
    outer loop
      vertex 4.05092 0 -1.75
      vertex 4.04814 -0.0112954 -1.75
      vertex 1.78241 0 1.75
    endloop
  endfacet
  facet normal -0.82176 0.202546 -0.532622
    outer loop
      vertex 1.78241 0 1.75
      vertex 4.04814 -0.0112954 -1.75
      vertex 1.58474 -0.801971 1.75
    endloop
  endfacet
  facet normal -0.82176 0.202546 -0.532621
    outer loop
      vertex 4.04814 -0.0112954 -1.75
      vertex 3.58691 -1.88256 -1.75
      vertex 1.58474 -0.801971 1.75
    endloop
  endfacet
  facet normal -0.82176 0.202546 -0.532621
    outer loop
      vertex 1.58474 -0.801971 1.75
      vertex 3.58691 -1.88256 -1.75
      vertex 1.57824 -0.828326 1.75
    endloop
  endfacet
  facet normal -0.633505 0.561237 -0.532621
    outer loop
      vertex 3.58691 -1.88256 -1.75
      vertex 3.5792 -1.89127 -1.75
      vertex 1.57824 -0.828326 1.75
    endloop
  endfacet
  facet normal -0.633505 0.561237 -0.532621
    outer loop
      vertex 1.57824 -0.828326 1.75
      vertex 3.5792 -1.89127 -1.75
      vertex 1.03052 -1.44657 1.75
    endloop
  endfacet
  facet normal -0.633505 0.561236 -0.532622
    outer loop
      vertex 3.5792 -1.89127 -1.75
      vertex 2.30119 -3.33384 -1.75
      vertex 1.03052 -1.44657 1.75
    endloop
  endfacet
  facet normal -0.633505 0.561236 -0.532622
    outer loop
      vertex 1.03052 -1.44657 1.75
      vertex 2.30119 -3.33384 -1.75
      vertex 1.01252 -1.46689 1.75
    endloop
  endfacet
  facet normal -0.300121 0.791354 -0.532622
    outer loop
      vertex 2.30119 -3.33384 -1.75
      vertex 2.29031 -3.33797 -1.75
      vertex 1.01252 -1.46689 1.75
    endloop
  endfacet
  facet normal -0.300121 0.791354 -0.532622
    outer loop
      vertex 1.01252 -1.46689 1.75
      vertex 2.29031 -3.33797 -1.75
      vertex 0.240226 -1.75979 1.75
    endloop
  endfacet
  facet normal -0.300121 0.791354 -0.532621
    outer loop
      vertex 2.29031 -3.33797 -1.75
      vertex 0.488285 -4.02139 -1.75
      vertex 0.240226 -1.75979 1.75
    endloop
  endfacet
  facet normal -0.300121 0.791354 -0.532621
    outer loop
      vertex 0.240226 -1.75979 1.75
      vertex 0.488285 -4.02139 -1.75
      vertex 0.214845 -1.76941 1.75
    endloop
  endfacet
  facet normal 0.102018 0.840183 -0.532621
    outer loop
      vertex 0.488285 -4.02139 -1.75
      vertex 0.476736 -4.01998 -1.75
      vertex 0.214845 -1.76941 1.75
    endloop
  endfacet
  facet normal 0.102018 0.840183 -0.532621
    outer loop
      vertex 0.214845 -1.76941 1.75
      vertex 0.476736 -4.01998 -1.75
      vertex -0.605104 -1.66985 1.75
    endloop
  endfacet
  facet normal 0.102017 0.840183 -0.532622
    outer loop
      vertex -0.605104 -1.66985 1.75
      vertex 0.476736 -4.01998 -1.75
      vertex -0.632051 -1.66658 1.75
    endloop
  endfacet
  facet normal 0.102017 0.840183 -0.532622
    outer loop
      vertex -0.632051 -1.66658 1.75
      vertex 0.476736 -4.01998 -1.75
      vertex -1.43648 -3.78768 -1.75
    endloop
  endfacet
  facet normal 0.480783 0.696536 -0.532622
    outer loop
      vertex -0.632051 -1.66658 1.75
      vertex -1.43648 -3.78768 -1.75
      vertex -1.31181 -1.19737 1.75
    endloop
  endfacet
  facet normal 0.480783 0.696536 -0.532622
    outer loop
      vertex -1.31181 -1.19737 1.75
      vertex -1.43648 -3.78768 -1.75
      vertex -1.44605 -3.78107 -1.75
    endloop
  endfacet
  facet normal 0.480784 0.696535 -0.532621
    outer loop
      vertex -1.31181 -1.19737 1.75
      vertex -1.44605 -3.78107 -1.75
      vertex -1.33415 -1.18196 1.75
    endloop
  endfacet
  facet normal 0.480784 0.696535 -0.532621
    outer loop
      vertex -1.33415 -1.18196 1.75
      vertex -1.44605 -3.78107 -1.75
      vertex -3.03216 -2.68626 -1.75
    endloop
  endfacet
  facet normal 0.749409 0.39332 -0.532621
    outer loop
      vertex -1.718 -0.450593 1.75
      vertex -1.33415 -1.18196 1.75
      vertex -3.03216 -2.68626 -1.75
    endloop
  endfacet
  facet normal 0.749409 0.39332 -0.532621
    outer loop
      vertex -3.03757 -2.67596 -1.75
      vertex -1.718 -0.450593 1.75
      vertex -3.03216 -2.68626 -1.75
    endloop
  endfacet
  facet normal 0.749409 0.39332 -0.532622
    outer loop
      vertex -1.73061 -0.426558 1.75
      vertex -1.718 -0.450593 1.75
      vertex -3.03757 -2.67596 -1.75
    endloop
  endfacet
  facet normal 0.749409 0.39332 -0.532622
    outer loop
      vertex -3.93321 -0.969449 -1.75
      vertex -1.73061 -0.426558 1.75
      vertex -3.03757 -2.67596 -1.75
    endloop
  endfacet
  facet normal 0.577196 -0.723782 0.378132
    outer loop
      vertex 27.0291 0.226777 -1.75
      vertex 27.0492 0.242799 -1.75
      vertex 27.0259 2.05277 1.75
    endloop
  endfacet
  facet normal 0.577196 -0.723782 0.378132
    outer loop
      vertex 25.5995 0.91524 1.75
      vertex 27.0291 0.226777 -1.75
      vertex 27.0259 2.05277 1.75
    endloop
  endfacet
  facet normal 0.925752 0 0.378132
    outer loop
      vertex 27.0291 -0.226777 -1.75
      vertex 27.0291 0.226777 -1.75
      vertex 25.5995 0.91524 1.75
    endloop
  endfacet
  facet normal 0.925752 0 0.378132
    outer loop
      vertex 25.5995 -0.91524 1.75
      vertex 27.0291 -0.226777 -1.75
      vertex 25.5995 0.91524 1.75
    endloop
  endfacet
  facet normal 0.577197 -0.723782 0.378132
    outer loop
      vertex 27.0492 0.242799 -1.75
      vertex 27.3837 0.509563 -1.75
      vertex 27.0306 2.05652 1.75
    endloop
  endfacet
  facet normal 0.577197 -0.723782 0.378132
    outer loop
      vertex 27.0259 2.05277 1.75
      vertex 27.0492 0.242799 -1.75
      vertex 27.0306 2.05652 1.75
    endloop
  endfacet
  facet normal -0.205999 -0.902541 0.378132
    outer loop
      vertex 27.3837 0.509563 -1.75
      vertex 27.4087 0.503845 -1.75
      vertex 28.8093 1.65055 1.75
    endloop
  endfacet
  facet normal -0.205999 -0.902541 0.378132
    outer loop
      vertex 27.0306 2.05652 1.75
      vertex 27.3837 0.509563 -1.75
      vertex 28.8093 1.65055 1.75
    endloop
  endfacet
  facet normal -0.205999 -0.902541 0.378132
    outer loop
      vertex 27.8259 0.408638 -1.75
      vertex 28.8152 1.6492 1.75
      vertex 28.8093 1.65055 1.75
    endloop
  endfacet
  facet normal -0.205999 -0.902541 0.378132
    outer loop
      vertex 27.4087 0.503845 -1.75
      vertex 27.8259 0.408638 -1.75
      vertex 28.8093 1.65055 1.75
    endloop
  endfacet
  facet normal -0.834073 -0.401669 0.378132
    outer loop
      vertex 29.6068 0.00542939 1.75
      vertex 28.8152 1.6492 1.75
      vertex 27.837 0.385487 -1.75
    endloop
  endfacet
  facet normal -0.834073 -0.401669 0.378132
    outer loop
      vertex 27.837 0.385487 -1.75
      vertex 28.8152 1.6492 1.75
      vertex 27.8259 0.408638 -1.75
    endloop
  endfacet
  facet normal -0.834074 -0.401668 0.378132
    outer loop
      vertex 29.6094 0 1.75
      vertex 29.6068 0.00542939 1.75
      vertex 28.0227 0 -1.75
    endloop
  endfacet
  facet normal -0.834074 -0.401668 0.378132
    outer loop
      vertex 28.0227 0 -1.75
      vertex 29.6068 0.00542939 1.75
      vertex 27.837 0.385487 -1.75
    endloop
  endfacet
  facet normal -0.834073 0.401669 0.378132
    outer loop
      vertex 29.6094 0 1.75
      vertex 28.0227 0 -1.75
      vertex 28.8178 -1.64378 1.75
    endloop
  endfacet
  facet normal -0.834073 0.401669 0.378132
    outer loop
      vertex 28.8178 -1.64378 1.75
      vertex 28.0227 0 -1.75
      vertex 28.0115 -0.0231518 -1.75
    endloop
  endfacet
  facet normal -0.834074 0.401668 0.378132
    outer loop
      vertex 28.8178 -1.64378 1.75
      vertex 28.0115 -0.0231518 -1.75
      vertex 28.8152 -1.6492 1.75
    endloop
  endfacet
  facet normal -0.834074 0.401668 0.378132
    outer loop
      vertex 28.8152 -1.6492 1.75
      vertex 28.0115 -0.0231518 -1.75
      vertex 27.8259 -0.408638 -1.75
    endloop
  endfacet
  facet normal -0.205999 0.902541 0.378132
    outer loop
      vertex 27.8259 -0.408638 -1.75
      vertex 27.8008 -0.414356 -1.75
      vertex 28.8152 -1.6492 1.75
    endloop
  endfacet
  facet normal -0.205999 0.902541 0.378132
    outer loop
      vertex 28.8152 -1.6492 1.75
      vertex 27.8008 -0.414356 -1.75
      vertex 27.0365 -2.05518 1.75
    endloop
  endfacet
  facet normal -0.205999 0.902541 0.378132
    outer loop
      vertex 27.8008 -0.414356 -1.75
      vertex 27.3837 -0.509563 -1.75
      vertex 27.0365 -2.05518 1.75
    endloop
  endfacet
  facet normal -0.205999 0.902541 0.378132
    outer loop
      vertex 27.0365 -2.05518 1.75
      vertex 27.3837 -0.509563 -1.75
      vertex 27.0306 -2.05652 1.75
    endloop
  endfacet
  facet normal 0.577196 0.723782 0.378132
    outer loop
      vertex 27.3837 -0.509563 -1.75
      vertex 27.3636 -0.493542 -1.75
      vertex 27.0306 -2.05652 1.75
    endloop
  endfacet
  facet normal 0.577196 0.723782 0.378132
    outer loop
      vertex 27.0306 -2.05652 1.75
      vertex 27.3636 -0.493542 -1.75
      vertex 25.6042 -0.918997 1.75
    endloop
  endfacet
  facet normal 0.577197 0.723782 0.378132
    outer loop
      vertex 27.3636 -0.493542 -1.75
      vertex 27.0291 -0.226777 -1.75
      vertex 25.6042 -0.918997 1.75
    endloop
  endfacet
  facet normal 0.577197 0.723782 0.378132
    outer loop
      vertex 25.6042 -0.918997 1.75
      vertex 27.0291 -0.226777 -1.75
      vertex 25.5995 -0.91524 1.75
    endloop
  endfacet
endsolid OpenSCAD_Model
